<svg width="18" height="18" viewBox="0 0 18 18" fill="none" xmlns="http://www.w3.org/2000/svg">
<g id="lock">
<path id="Union" fill-rule="evenodd" clip-rule="evenodd" d="M5.25 6V5.25C5.25 3.17893 6.92893 1.5 9 1.5C11.0711 1.5 12.75 3.17893 12.75 5.25V6C13.9926 6 15 7.00736 15 8.25V14.25C15 15.4926 13.9926 16.5 12.75 16.5H5.25C4.00736 16.5 3 15.4926 3 14.25V8.25C3 7.00736 4.00736 6 5.25 6ZM6.75 5.25C6.75 4.00736 7.75736 3 9 3C10.2426 3 11.25 4.00736 11.25 5.25V6H6.75V5.25Z" fill="#5257F5"/>
<path id="Union_2" d="M9.75 11.7993C10.1984 11.54 10.5 11.0552 10.5 10.5C10.5 9.67157 9.82843 9 9 9C8.17157 9 7.5 9.67157 7.5 10.5C7.5 11.0552 7.80165 11.54 8.25 11.7993V12.75C8.25 13.1642 8.58579 13.5 9 13.5C9.41421 13.5 9.75 13.1642 9.75 12.75V11.7993Z" fill="#56F2C3"/>
</g>
</svg>
