<svg width="12" height="11" viewBox="0 0 12 11" fill="none" xmlns="http://www.w3.org/2000/svg">
<path d="M5.244 10.472C4.372 10.472 3.608 10.304 2.952 9.968C2.304 9.632 1.796 9.156 1.428 8.54C1.068 7.932 0.888 7.212 0.888 6.38C0.888 5.508 1.04 4.7 1.344 3.956C1.648 3.212 2.076 2.56 2.628 2C3.18 1.44 3.828 1.008 4.572 0.704C5.316 0.392 6.132 0.236 7.02 0.236C7.932 0.236 8.72 0.408 9.384 0.752C10.048 1.096 10.56 1.576 10.92 2.192C11.288 2.808 11.472 3.516 11.472 4.316C11.472 4.788 11.412 5.248 11.292 5.696C11.172 6.144 10.996 6.548 10.764 6.908C10.54 7.26 10.26 7.544 9.924 7.76C9.596 7.968 9.216 8.072 8.784 8.072C8.376 8.072 8.056 7.976 7.824 7.784C7.6 7.584 7.464 7.316 7.416 6.98C7.176 7.324 6.868 7.592 6.492 7.784C6.124 7.976 5.728 8.072 5.304 8.072C4.704 8.072 4.232 7.892 3.888 7.532C3.552 7.164 3.384 6.668 3.384 6.044C3.384 5.604 3.452 5.184 3.588 4.784C3.724 4.376 3.92 4.016 4.176 3.704C4.432 3.384 4.732 3.132 5.076 2.948C5.428 2.764 5.816 2.672 6.24 2.672C7.016 2.672 7.524 2.98 7.764 3.596L7.908 2.804H8.964L8.388 6.116C8.332 6.444 8.344 6.712 8.424 6.92C8.504 7.12 8.684 7.22 8.964 7.22C9.212 7.22 9.428 7.132 9.612 6.956C9.804 6.78 9.96 6.552 10.08 6.272C10.208 5.992 10.304 5.688 10.368 5.36C10.432 5.024 10.464 4.696 10.464 4.376C10.464 3.36 10.148 2.564 9.516 1.988C8.884 1.404 8.004 1.112 6.876 1.112C6.164 1.112 5.504 1.248 4.896 1.52C4.288 1.784 3.76 2.152 3.312 2.624C2.864 3.088 2.516 3.632 2.268 4.256C2.02 4.88 1.896 5.552 1.896 6.272C1.896 7.32 2.212 8.132 2.844 8.708C3.476 9.292 4.34 9.584 5.436 9.584C5.788 9.584 6.136 9.548 6.48 9.476C6.832 9.404 7.16 9.3 7.464 9.164L7.668 10.004C6.932 10.316 6.124 10.472 5.244 10.472ZM5.7 7.124C6.012 7.124 6.3 7.04 6.564 6.872C6.828 6.696 7.044 6.46 7.212 6.164C7.38 5.86 7.48 5.516 7.512 5.132C7.552 4.716 7.472 4.36 7.272 4.064C7.072 3.768 6.756 3.62 6.324 3.62C5.956 3.62 5.636 3.728 5.364 3.944C5.092 4.16 4.884 4.436 4.74 4.772C4.596 5.108 4.524 5.464 4.524 5.84C4.524 6.224 4.62 6.536 4.812 6.776C5.012 7.008 5.308 7.124 5.7 7.124Z" fill="#7D8DA7"/>
</svg>
